<svg id="Layer_1" data-name="Layer 1" xmlns="http://www.w3.org/2000/svg" width="150.8725mm" height="26.4815mm" viewBox="0 0 427.6701 75.0658"><defs><style>.cls-1{fill:#e83e56;}.cls-2{fill:#f6c500;}.cls-3{fill:#323232;}.cls-4{fill:#4daf47;}</style></defs><path class="cls-1" d="M90.1073,54.9088A3.9627,3.9627,0,0,1,88.9431,57.72L70.7214,75.9417a34.659,34.659,0,1,1,0-49.0151A3.9751,3.9751,0,1,1,65.1,32.5482a26.7087,26.7087,0,1,0,0,37.7719L83.3214,52.0979a3.9752,3.9752,0,0,1,6.7859,2.8109Z" transform="translate(-11.5548 -16.7752)"/><path class="cls-2" d="M62.02,39.6031a3.975,3.975,0,0,1-6.7857,2.8108,12.7568,12.7568,0,1,0,0,18.04,3.9751,3.9751,0,0,1,5.6217,5.6217,20.7066,20.7066,0,1,1,0-29.2835A3.9631,3.9631,0,0,1,62.02,39.6031Z" transform="translate(-11.5548 -16.7752)"/><path class="cls-3" d="M93.47,73.4445V62.4611A21.096,21.096,0,0,0,99.9577,66.22a20.8511,20.8511,0,0,0,7.07,1.253,15.6582,15.6582,0,0,0,3.6543-.378,8.5774,8.5774,0,0,0,2.6094-1.0468,4.5755,4.5755,0,0,0,1.5615-1.5791,3.94,3.94,0,0,0,.5147-1.9737,4.26,4.26,0,0,0-.8242-2.5732,8.8524,8.8524,0,0,0-2.2481-2.0938,23.4731,23.4731,0,0,0-3.38-1.8535q-1.957-.8921-4.2216-1.8193a21.5342,21.5342,0,0,1-8.5977-5.8692,12.81,12.81,0,0,1-2.832-8.374,13.34,13.34,0,0,1,1.5449-6.6064,13.111,13.111,0,0,1,4.2041-4.5479,18.8847,18.8847,0,0,1,6.1611-2.626,31.658,31.658,0,0,1,7.4131-.8408,44.4939,44.4939,0,0,1,6.8125.4639,26.851,26.851,0,0,1,5.4746,1.4238V37.4416a16.6058,16.6058,0,0,0-2.6943-1.5107,21.4034,21.4034,0,0,0-3.0029-1.0811,22.9432,22.9432,0,0,0-3.0723-.6348,21.6846,21.6846,0,0,0-2.8994-.206,15.1272,15.1272,0,0,0-3.4326.36,8.81,8.81,0,0,0-2.6084,1.0127,5.0349,5.0349,0,0,0-1.6475,1.5616,3.6952,3.6952,0,0,0-.583,2.042,3.9,3.9,0,0,0,.6514,2.2138,7.48,7.48,0,0,0,1.8535,1.8535,19.6935,19.6935,0,0,0,2.9179,1.7159q1.7154.8408,3.878,1.7334a43.2771,43.2771,0,0,1,5.3027,2.625,18.8432,18.8432,0,0,1,4.0322,3.1406,12.2317,12.2317,0,0,1,2.5742,3.999,14.13,14.13,0,0,1,.8926,5.2334,14.0192,14.0192,0,0,1-1.5615,6.916,12.6749,12.6749,0,0,1-4.2383,4.53,18.3619,18.3619,0,0,1-6.23,2.4883,36.0336,36.0336,0,0,1-7.499.7549,41.6788,41.6788,0,0,1-7.706-.6866A23.25,23.25,0,0,1,93.47,73.4445Z" transform="translate(-11.5548 -16.7752)"/><path class="cls-3" d="M139.5651,34.6272a6.332,6.332,0,0,1-4.496-1.6309,5.25,5.25,0,0,1-1.751-3.9981,5.0667,5.0667,0,0,1,1.751-3.9814,7.3427,7.3427,0,0,1,9.0087,0,5.09,5.09,0,0,1,1.7334,3.9814,5.2314,5.2314,0,0,1-1.7334,4.05A6.4409,6.4409,0,0,1,139.5651,34.6272Zm5.3536,40.705H134.073V40.1867h10.8457Z" transform="translate(-11.5548 -16.7752)"/><path class="cls-3" d="M209.8542,75.3322h-10.81V55.2883q0-7.6539-5.6289-7.6533a5.173,5.173,0,0,0-4.3594,2.2988,9.4527,9.4527,0,0,0-1.6817,5.7324v19.666H176.528v-20.25q0-7.4472-5.5254-7.4472a5.2966,5.2966,0,0,0-4.4443,2.1963,9.6618,9.6618,0,0,0-1.665,5.9716V75.3322H154.0476V40.1867h10.8457v5.4912h.1377a13.3176,13.3176,0,0,1,11.36-6.3486q7.4474,0,10.1934,6.5547a13,13,0,0,1,11.8066-6.5547q11.4624,0,11.4629,14.14Z" transform="translate(-11.5548 -16.7752)"/><path class="cls-3" d="M229.4177,71.2473H229.28v20.25H218.4343V40.1867H229.28v5.2862h.1377a12.7493,12.7493,0,0,1,11.2915-6.1436q6.8305,0,10.5547,4.6846t3.7236,12.75q0,8.7876-4.3418,14.1064A14.1544,14.1544,0,0,1,239.0969,76.19,10.9434,10.9434,0,0,1,229.4177,71.2473Zm-.31-14.4141v2.8135a8.9416,8.9416,0,0,0,1.9234,5.9385,6.2531,6.2531,0,0,0,5.0449,2.2988,6.6521,6.6521,0,0,0,5.749-2.8652q2.0406-2.8653,2.042-8.1172,0-9.2667-7.208-9.2666a6.7675,6.7675,0,0,0-5.44,2.5224A10.06,10.06,0,0,0,229.1081,56.8332Z" transform="translate(-11.5548 -16.7752)"/><path class="cls-3" d="M272.8684,75.3322H262.0227V23.301h10.8457Z" transform="translate(-11.5548 -16.7752)"/><path class="cls-3" d="M287.49,34.6272a6.3324,6.3324,0,0,1-4.4961-1.6309,5.25,5.25,0,0,1-1.7509-3.9981,5.0669,5.0669,0,0,1,1.7509-3.9814,7.3428,7.3428,0,0,1,9.0088,0,5.09,5.09,0,0,1,1.7334,3.9814,5.2314,5.2314,0,0,1-1.7334,4.05A6.4409,6.4409,0,0,1,287.49,34.6272Zm5.3536,40.705H281.9983V40.1867H292.844Z" transform="translate(-11.5548 -16.7752)"/><path class="cls-3" d="M324.9,31.6066a10.9636,10.9636,0,0,0-4.0156-.8242q-5.2163,0-5.2168,5.6631v3.7412h8.0312v7.9971h-8.0312V75.3322H304.8557V48.1838h-5.9024V40.1867h5.9024V35.8283a12.6551,12.6551,0,0,1,3.9131-9.6787q3.9126-3.6723,10.64-3.6728a18.7024,18.7024,0,0,1,5.4912.6865Z" transform="translate(-11.5548 -16.7752)"/><path class="cls-3" d="M363.7863,40.1867l-14.2783,37.96Q344.3606,91.84,333.9953,91.841a19.88,19.88,0,0,1-6.4873-.8926V82.299a9.12,9.12,0,0,0,4.7022,1.27,5.8749,5.8749,0,0,0,5.8349-3.9472l1.8535-4.3594L325.62,40.1867H337.633L344.1887,61.57a27.8425,27.8425,0,0,1,.9609,4.7012h.1377a32.7233,32.7233,0,0,1,1.1318-4.6328l6.6241-21.4512Z" transform="translate(-11.5548 -16.7752)"/><path class="cls-3" d="M369.1066,76.19a6.3241,6.3241,0,0,1-4.4619-1.6475,5.2924,5.2924,0,0,1-1.7851-4.05,5.0985,5.0985,0,0,1,1.8369-4.05,6.7814,6.7814,0,0,1,4.581-1.5791,6.5254,6.5254,0,0,1,4.5479,1.5967,5.5262,5.5262,0,0,1-.0342,8.1338A6.8,6.8,0,0,1,369.1066,76.19Z" transform="translate(-11.5548 -16.7752)"/><path class="cls-3" d="M388.8068,34.6272a6.332,6.332,0,0,1-4.496-1.6309,5.25,5.25,0,0,1-1.751-3.9981,5.0667,5.0667,0,0,1,1.751-3.9814,7.3427,7.3427,0,0,1,9.0087,0,5.09,5.09,0,0,1,1.7334,3.9814,5.2314,5.2314,0,0,1-1.7334,4.05A6.4409,6.4409,0,0,1,388.8068,34.6272Zm5.3536,40.705H383.3147V40.1867H394.16Z" transform="translate(-11.5548 -16.7752)"/><path class="cls-3" d="M420.0393,76.19q-8.7862,0-13.8145-4.9248t-5.0283-13.3682q0-8.7172,5.2178-13.6426,5.2162-4.9248,14.1054-4.9248,8.7525,0,13.7286,4.9248t4.9765,13.0244q0,8.7525-5.1308,13.8321T420.0393,76.19Zm.2744-28.5547a7.2343,7.2343,0,0,0-5.9717,2.6425q-2.1284,2.6427-2.1279,7.4815,0,10.1265,8.1689,10.125,7.79,0,7.79-10.3994Q428.1731,47.635,420.3137,47.635Z" transform="translate(-11.5548 -16.7752)"/><path class="cls-4" d="M50.831,48.0707a1.1312,1.1312,0,0,1-1.9311.8,3.63,3.63,0,1,0,0,5.1339,1.1313,1.1313,0,0,1,1.6,1.6,5.8927,5.8927,0,1,1,0-8.3336A1.1279,1.1279,0,0,1,50.831,48.0707Z" transform="translate(-11.5548 -16.7752)"/><circle class="cls-4" cx="34.6157" cy="35.2812" r="7"/></svg>